<?xml version="1.0" encoding="utf-8"?>
<!-- Generator: Adobe Illustrator 19.2.1, SVG Export Plug-In . SVG Version: 6.00 Build 0)  -->
<svg version="1.1" id="Forma_1_копия_16_1_" xmlns="http://www.w3.org/2000/svg" xmlns:xlink="http://www.w3.org/1999/xlink"
	 x="0px" y="0px" viewBox="0 0 4.5 3.6" style="enable-background:new 0 0 4.5 3.6;" xml:space="preserve">
<style type="text/css">
	.st0{fill-rule:evenodd;clip-rule:evenodd;fill:#37C406;}
</style>
<g id="Forma_1_копия_16">
	<g>
		<path class="st0" d="M4.331,0.205L4.21,0.108c-0.2-0.16-0.501-0.142-0.677,0.04L1.517,2.227L0.909,1.74
			c-0.2-0.16-0.5-0.143-0.677,0.039L0.125,1.888C0.039,1.978-0.006,2.095,0,2.215c0.007,0.119,0.064,0.232,0.16,0.312l1.115,0.95
			c0.097,0.085,0.226,0.128,0.358,0.122C1.766,3.592,1.89,3.535,1.976,3.442l2.406-2.601c0.084-0.09,0.126-0.209,0.116-0.328
			C4.489,0.394,4.429,0.283,4.331,0.205z"/>
	</g>
</g>
</svg>
