<?xml version="1.0" encoding="utf-8"?>
<!-- Generator: Adobe Illustrator 19.0.1, SVG Export Plug-In . SVG Version: 6.00 Build 0)  -->
<svg version="1.1" id="Layer_1" xmlns="http://www.w3.org/2000/svg" xmlns:xlink="http://www.w3.org/1999/xlink" x="0px" y="0px"
	 viewBox="-301 392.12 8.88 8.88" style="enable-background:new -301 392.12 8.88 8.88;" xml:space="preserve">
<style type="text/css">
	.st0{enable-background:new    ;}
	.st1{fill:#FF8400;}
</style>
<g id="Forma_1_1_" class="st0">
	<g id="Forma_1">
		<g>
			<path class="st1" d="M-295.666,400.234c-0.073,0.018-0.148,0.035-0.222,0.048c-0.194,0.037-0.322,0.224-0.286,0.42
				c0.018,0.096,0.072,0.176,0.145,0.228c0.076,0.054,0.172,0.078,0.271,0.06c0.088-0.017,0.177-0.036,0.265-0.058
				c0.191-0.048,0.308-0.243,0.26-0.436S-295.474,400.186-295.666,400.234z M-293.024,395.414c0.025,0.076,0.073,0.138,0.133,0.181
				c0.089,0.064,0.207,0.085,0.318,0.048c0.188-0.063,0.289-0.266,0.227-0.455c-0.028-0.086-0.06-0.172-0.093-0.256
				c-0.073-0.184-0.281-0.274-0.464-0.2c-0.183,0.074-0.272,0.283-0.199,0.467C-293.074,395.27-293.048,395.342-293.024,395.414z
				 M-294.505,399.721c-0.063,0.042-0.128,0.082-0.194,0.12c-0.171,0.099-0.229,0.319-0.131,0.491
				c0.027,0.047,0.062,0.085,0.103,0.114c0.11,0.078,0.26,0.09,0.384,0.017c0.078-0.045,0.155-0.094,0.23-0.143
				c0.165-0.109,0.21-0.333,0.101-0.498C-294.119,399.657-294.34,399.611-294.505,399.721z M-292.124,396.419
				c-0.007-0.199-0.174-0.353-0.371-0.345c-0.197,0.007-0.35,0.174-0.343,0.373c0.003,0.076,0.004,0.153,0.002,0.228
				c-0.002,0.125,0.058,0.236,0.152,0.303c0.056,0.04,0.124,0.064,0.198,0.065c0.197,0.005,0.36-0.153,0.365-0.352
				C-292.119,396.601-292.12,396.509-292.124,396.419z M-293.583,398.847c-0.045,0.061-0.093,0.121-0.142,0.178
				c-0.128,0.152-0.11,0.379,0.04,0.507c0.009,0.008,0.018,0.014,0.027,0.021c0.149,0.106,0.357,0.081,0.477-0.061
				c0.058-0.069,0.115-0.141,0.169-0.213c0.118-0.159,0.086-0.384-0.071-0.503C-293.241,398.656-293.464,398.688-293.583,398.847z
				 M-292.557,397.475c-0.189-0.059-0.389,0.046-0.448,0.235c-0.023,0.073-0.048,0.145-0.075,0.217
				c-0.059,0.156-0.002,0.329,0.128,0.422c0.024,0.017,0.05,0.031,0.079,0.042c0.184,0.071,0.391-0.022,0.461-0.208
				c0.032-0.085,0.062-0.171,0.089-0.257C-292.264,397.736-292.369,397.534-292.557,397.475z M-297.224,400.286
				c-0.32-0.058-0.626-0.156-0.917-0.293c-0.003-0.002-0.007-0.004-0.01-0.005c-0.068-0.033-0.137-0.068-0.203-0.104h-0.001
				c-0.122-0.068-0.24-0.143-0.355-0.224c-1.68-1.192-2.084-3.537-0.901-5.228c0.257-0.368,0.569-0.674,0.916-0.918
				c0.005-0.003,0.009-0.006,0.013-0.009c1.224-0.849,2.886-0.906,4.185-0.034l-0.279,0.406c-0.078,0.113-0.03,0.195,0.106,0.183
				l1.212-0.109c0.136-0.013,0.218-0.131,0.181-0.264l-0.325-1.18c-0.037-0.133-0.13-0.148-0.208-0.036l-0.28,0.408
				c-0.954-0.645-2.097-0.89-3.233-0.692c-0.114,0.019-0.227,0.044-0.338,0.072c-0.001,0-0.002,0.001-0.002,0.001
				c-0.004,0.001-0.009,0.002-0.013,0.003c-0.979,0.253-1.833,0.828-2.442,1.648c-0.006,0.006-0.011,0.012-0.016,0.019
				c-0.02,0.028-0.04,0.056-0.06,0.084c-0.032,0.046-0.064,0.093-0.094,0.14c-0.004,0.006-0.007,0.012-0.01,0.017
				c-0.503,0.785-0.746,1.692-0.704,2.615c0,0.003,0,0.006,0,0.009c0.004,0.09,0.011,0.182,0.021,0.272
				c0,0.006,0.002,0.011,0.003,0.017c0.01,0.091,0.023,0.181,0.038,0.272c0.159,0.925,0.593,1.758,1.243,2.407
				c0.002,0.002,0.003,0.003,0.005,0.005c0.001,0.001,0.001,0.001,0.002,0.001c0.175,0.173,0.365,0.334,0.569,0.479
				c0.535,0.38,1.131,0.63,1.771,0.746c0.194,0.035,0.38-0.095,0.415-0.29C-296.901,400.508-297.03,400.321-297.224,400.286z
				 M-296.783,393.687c-0.16,0-0.289,0.13-0.289,0.291v2.898l2.634,1.37c0.042,0.022,0.088,0.033,0.132,0.033
				c0.105,0,0.206-0.057,0.257-0.157c0.073-0.143,0.018-0.318-0.124-0.392l-2.321-1.208v-2.544
				C-296.494,393.817-296.623,393.687-296.783,393.687z"/>
		</g>
	</g>
</g>
</svg>
