<?xml version="1.0" encoding="utf-8"?>
<!-- Generator: Adobe Illustrator 19.2.1, SVG Export Plug-In . SVG Version: 6.00 Build 0)  -->
<svg version="1.1" id="Слой_1" xmlns="http://www.w3.org/2000/svg" xmlns:xlink="http://www.w3.org/1999/xlink" x="0px" y="0px"
	 viewBox="0 0 3.1 3.1" style="enable-background:new 0 0 3.1 3.1;" xml:space="preserve">
<style type="text/css">
	.st0{enable-background:new    ;}
	.st1{fill:#FFFFFF;}
</style>
<g id="Forma_1_1_" class="st0">
	<g id="Forma_1">
		<g>
			<path class="st1" d="M2.1,1.6L3,0.6c0.1-0.1,0.1-0.4,0-0.5S2.6,0,2.5,0.1L1.6,1L0.6,0.1C0.5,0,0.3,0,0.1,0.1S0,0.5,0.1,0.6L1,1.6
				L0.1,2.5C0,2.6,0,2.9,0.1,3c0.1,0.1,0.2,0.1,0.3,0.1c0.1,0,0.2,0,0.3-0.1l0.9-0.9L2.5,3c0.1,0.1,0.2,0.1,0.3,0.1S2.9,3.1,3,3
				c0.1-0.1,0.1-0.4,0-0.5L2.1,1.6z"/>
		</g>
	</g>
</g>
</svg>
