<?xml version="1.0" encoding="utf-8"?>
<!-- Generator: Adobe Illustrator 19.2.1, SVG Export Plug-In . SVG Version: 6.00 Build 0)  -->
<svg version="1.1" id="Shape_1_1_" xmlns="http://www.w3.org/2000/svg" xmlns:xlink="http://www.w3.org/1999/xlink" x="0px" y="0px"
	 viewBox="0 0 70.5 54.9" style="enable-background:new 0 0 70.5 54.9;" xml:space="preserve">
<style type="text/css">
	.st0{opacity:0.3;}
	.st1{fill:#75CF2D;}
</style>
<g id="Shape_1" class="st0">
	<g>
		<path class="st1" d="M70.5,6.299c0-1.07-0.415-2.075-1.169-2.831l-1.568-1.573c-0.754-0.756-1.756-1.173-2.822-1.173
			c-1.066,0-2.068,0.417-2.823,1.173L54.73,9.306V1.408c0-0.778-0.629-1.409-1.404-1.409H1.404C0.629-0.001,0,0.631,0,1.408v52.083
			C0,54.269,0.629,54.9,1.404,54.9h51.922c0.775,0,1.404-0.63,1.404-1.409L54.73,23.777L69.331,9.13
			C70.085,8.374,70.5,7.369,70.5,6.299z M51.922,52.082H2.809V2.817h49.113v9.306L26.21,37.915c-0.154,0.155-0.27,0.343-0.339,0.55
			l-2.613,7.865c-0.168,0.506-0.037,1.064,0.339,1.441c0.268,0.269,0.627,0.413,0.993,0.413c0.149,0,0.298-0.024,0.444-0.072
			l7.84-2.622c0.207-0.069,0.395-0.186,0.549-0.341l18.499-18.556V52.082z M31.671,42.923l-4.861,1.626l1.62-4.877L58.25,9.759
			l3.241,3.251L31.671,42.923z M67.345,7.138l-3.868,3.88l-1.62-1.626l-1.62-1.625l3.868-3.88c0.223-0.224,0.52-0.348,0.836-0.348
			c0.316,0,0.613,0.123,0.836,0.347l1.568,1.573c0,0.001,0,0.001,0,0.001c0.223,0.224,0.346,0.522,0.346,0.838
			C67.691,6.616,67.568,6.914,67.345,7.138z M42.465,11.622h1.339c0.776,0,1.404-0.631,1.404-1.409c0-0.778-0.629-1.409-1.404-1.409
			h-1.339c-0.776,0-1.404,0.631-1.404,1.409C41.061,10.991,41.69,11.622,42.465,11.622z M10.777,11.622h25.589
			c0.775,0,1.404-0.631,1.404-1.409c0-0.778-0.629-1.409-1.404-1.409H10.777c-0.776,0-1.404,0.631-1.404,1.409
			C9.373,10.991,10.001,11.622,10.777,11.622z M10.777,19.83h24.25c0.776,0,1.404-0.631,1.404-1.409
			c0-0.778-0.629-1.409-1.404-1.409h-24.25c-0.776,0-1.404,0.631-1.404,1.409C9.373,19.199,10.001,19.83,10.777,19.83z
			 M10.777,28.038h15.472c0.776,0,1.404-0.631,1.404-1.409c0-0.778-0.629-1.409-1.405-1.409H10.777
			c-0.776,0-1.404,0.631-1.404,1.409C9.373,27.407,10.001,28.038,10.777,28.038z M19.555,33.279h-8.778
			c-0.776,0-1.404,0.631-1.404,1.409c0,0.778,0.629,1.409,1.404,1.409h8.778c0.776,0,1.404-0.631,1.404-1.409
			C20.959,33.91,20.33,33.279,19.555,33.279z"/>
	</g>
</g>
</svg>
