<?xml version="1.0" encoding="utf-8"?>
<!-- Generator: Adobe Illustrator 19.2.1, SVG Export Plug-In . SVG Version: 6.00 Build 0)  -->
<svg version="1.1" id="Shape_1_1_" xmlns="http://www.w3.org/2000/svg" xmlns:xlink="http://www.w3.org/1999/xlink" x="0px" y="0px"
	 viewBox="0 0 51.6 71.1" style="enable-background:new 0 0 51.6 71.1;" xml:space="preserve">
<style type="text/css">
	.st0{opacity:0.3;}
	.st1{fill:#75CF2D;}
</style>
<g id="Shape_1" class="st0">
	<g>
		<path class="st1" d="M51.185,0.415C50.919,0.149,50.557,0,50.18,0H1.419C0.635,0,0,0.634,0,1.416v68.268
			C0,70.466,0.635,71.1,1.419,71.1h48.641c0.783,0,1.417-0.633,1.419-1.414l0.121-68.268C51.6,1.042,51.451,0.682,51.185,0.415z
			 M48.643,68.267H2.837V2.832h45.922L48.643,68.267z M40.004,52.065c0-4.031-3.284-7.309-7.321-7.309
			c-4.037,0-7.321,3.279-7.321,7.309c0,0.196,0.01,0.389,0.025,0.581l-6.55,6.555c-0.384,0.385-0.514,0.955-0.335,1.467
			c0.18,0.513,0.637,0.879,1.178,0.94l3.089,0.354l0.354,3.084c0.062,0.541,0.429,0.997,0.943,1.176
			c0.152,0.053,0.31,0.079,0.466,0.079c0.371,0,0.734-0.145,1.005-0.416l6.533-6.539c0.202,0.017,0.406,0.028,0.613,0.028
			c0.204,0,0.406-0.011,0.606-0.027l6.488,6.535c0.271,0.273,0.635,0.42,1.008,0.42c0.155,0,0.312-0.026,0.464-0.078
			c0.516-0.178,0.883-0.636,0.945-1.177l0.355-3.083l3.089-0.354c0.54-0.062,0.997-0.426,1.177-0.938
			c0.18-0.511,0.051-1.081-0.331-1.466l-6.505-6.552C39.994,52.459,40.004,52.263,40.004,52.065z M25.606,61.805l-0.147-1.283
			c-0.075-0.654-0.592-1.17-1.248-1.246l-1.294-0.148l3.421-3.423c0.643,1.112,1.569,2.039,2.681,2.684L25.606,61.805z
			 M32.683,56.541c-2.472,0-4.484-2.008-4.484-4.476c0-2.469,2.011-4.477,4.484-4.477c2.472,0,4.484,2.008,4.484,4.477
			C37.166,54.533,35.155,56.541,32.683,56.541z M42.411,59.127l-1.306,0.15c-0.655,0.075-1.173,0.591-1.248,1.246l-0.146,1.27
			l-3.374-3.399c1.113-0.643,2.041-1.569,2.685-2.68L42.411,59.127z M8.492,51.696h10.924c0.783,0,1.419-0.634,1.419-1.416
			c0-0.782-0.635-1.416-1.419-1.416H8.492c-0.783,0-1.419,0.634-1.419,1.416C7.073,51.062,7.708,51.696,8.492,51.696z M20.054,11.33
			h11.491c0.783,0,1.419-0.635,1.419-1.417c0-0.782-0.635-1.416-1.419-1.416H20.054c-0.783,0-1.419,0.634-1.419,1.416
			C18.635,10.696,19.27,11.33,20.054,11.33z M9.13,17.279h33.339c0.783,0,1.419-0.634,1.419-1.416c0-0.782-0.635-1.416-1.419-1.416
			H9.13c-0.783,0-1.419,0.634-1.419,1.416C7.711,16.645,8.347,17.279,9.13,17.279z M21.26,27.051h14.967
			c0.783,0,1.419-0.634,1.419-1.416c0-0.782-0.635-1.416-1.419-1.416H21.26c-0.783,0-1.419,0.634-1.419,1.416
			C19.841,26.417,20.476,27.051,21.26,27.051z M16.152,24.219h-0.78c-0.783,0-1.419,0.634-1.419,1.416
			c0,0.782,0.635,1.416,1.419,1.416h0.78c0.783,0,1.419-0.634,1.419-1.416C17.571,24.853,16.936,24.219,16.152,24.219z
			 M21.26,32.575h14.967c0.783,0,1.419-0.634,1.419-1.416c0-0.782-0.635-1.416-1.419-1.416H21.26c-0.783,0-1.419,0.634-1.419,1.416
			C19.841,31.941,20.476,32.575,21.26,32.575z M16.152,29.743h-0.78c-0.783,0-1.419,0.634-1.419,1.416
			c0,0.782,0.635,1.416,1.419,1.416h0.78c0.783,0,1.419-0.634,1.419-1.416C17.571,30.376,16.936,29.743,16.152,29.743z
			 M21.26,38.241h14.967c0.783,0,1.419-0.634,1.419-1.416c0-0.782-0.635-1.416-1.419-1.416H21.26c-0.783,0-1.419,0.634-1.419,1.416
			C19.841,37.607,20.476,38.241,21.26,38.241z M16.152,35.408h-0.78c-0.783,0-1.419,0.634-1.419,1.416
			c0,0.782,0.635,1.416,1.419,1.416h0.78c0.783,0,1.419-0.634,1.419-1.416C17.571,36.042,16.936,35.408,16.152,35.408z"/>
	</g>
</g>
</svg>
