<?xml version="1.0" encoding="utf-8"?>
<!-- Generator: Adobe Illustrator 19.2.1, SVG Export Plug-In . SVG Version: 6.00 Build 0)  -->
<svg version="1.1" id="Shape_1_1_" xmlns="http://www.w3.org/2000/svg" xmlns:xlink="http://www.w3.org/1999/xlink" x="0px" y="0px"
	 viewBox="0 0 51.9 71.7" style="enable-background:new 0 0 51.9 71.7;" xml:space="preserve">
<style type="text/css">
	.st0{opacity:0.3;}
	.st1{fill:#75CF2D;}
</style>
<g id="Shape_1" class="st0">
	<g>
		<path class="st1" d="M50.473,0H1.427C0.639,0,0,0.639,0,1.428v68.843C0,71.06,0.639,71.7,1.427,71.7h37.294
			c0.378,0,0.741-0.151,1.009-0.418l11.752-11.763c0.268-0.268,0.418-0.631,0.418-1.01V1.428C51.9,0.639,51.261,0,50.473,0z
			 M40.145,66.826l-0.006-6.898l6.891,0.006L40.145,66.826z M49.046,57.079L38.712,57.07h-0.001c-0.378,0-0.741,0.151-1.009,0.418
			c-0.268,0.268-0.418,0.632-0.418,1.011l0.009,10.343H2.854V2.856h46.192V57.079z M10.082,19.247
			c0.268,0.268,0.631,0.419,1.009,0.419s0.741-0.151,1.009-0.419l5.208-5.213c0.557-0.558,0.557-1.462,0-2.02
			c-0.557-0.558-1.461-0.558-2.018,0l-4.199,4.203l-1.043-1.044c-0.557-0.558-1.461-0.558-2.018,0c-0.557,0.558-0.557,1.462,0,2.02
			L10.082,19.247z M42.36,17.718h0.5c0.788,0,1.427-0.639,1.427-1.428c0-0.789-0.639-1.428-1.427-1.428h-0.5
			c-0.788,0-1.427,0.639-1.427,1.428C40.933,17.078,41.572,17.718,42.36,17.718z M21.816,17.718h15.977
			c0.788,0,1.427-0.639,1.427-1.428c0-0.789-0.639-1.428-1.427-1.428H21.816c-0.788,0-1.427,0.639-1.427,1.428
			C20.389,17.078,21.028,17.718,21.816,17.718z M10.082,33.074c0.268,0.268,0.631,0.419,1.009,0.419s0.741-0.151,1.009-0.419
			l5.208-5.213c0.557-0.558,0.557-1.462,0-2.02c-0.557-0.558-1.461-0.558-2.018,0l-4.199,4.203l-1.043-1.044
			c-0.557-0.557-1.461-0.557-2.018,0c-0.557,0.558-0.557,1.462,0,2.02L10.082,33.074z M21.816,31.544H42.86
			c0.788,0,1.427-0.64,1.427-1.428c0-0.789-0.639-1.428-1.427-1.428H21.816c-0.788,0-1.427,0.639-1.427,1.428
			C20.389,30.905,21.028,31.544,21.816,31.544z M10.082,46.857c0.268,0.268,0.631,0.418,1.009,0.418s0.741-0.15,1.009-0.418
			l5.208-5.213c0.557-0.558,0.557-1.462,0-2.02c-0.557-0.558-1.461-0.558-2.018,0l-4.199,4.203l-1.043-1.044
			c-0.557-0.558-1.461-0.558-2.018,0c-0.557,0.558-0.557,1.462,0,2.02L10.082,46.857z M21.816,45.327H42.86
			c0.788,0,1.427-0.64,1.427-1.428c0-0.789-0.639-1.429-1.427-1.429H21.816c-0.788,0-1.427,0.639-1.427,1.429
			C20.389,44.688,21.028,45.327,21.816,45.327z"/>
	</g>
</g>
</svg>
