<?xml version="1.0" encoding="utf-8"?>
<!-- Generator: Adobe Illustrator 19.2.1, SVG Export Plug-In . SVG Version: 6.00 Build 0)  -->
<svg version="1.1" id="Forma_1_1_" xmlns="http://www.w3.org/2000/svg" xmlns:xlink="http://www.w3.org/1999/xlink" x="0px" y="0px"
	 viewBox="0 0 80.4 78.6" style="enable-background:new 0 0 80.4 78.6;" xml:space="preserve">
<style type="text/css">
	.st0{opacity:0.3;}
	.st1{fill-rule:evenodd;clip-rule:evenodd;fill:#75CF2D;}
</style>
<g id="Forma_1" class="st0">
	<g>
		<path class="st1" d="M47.346,14.153c-0.127-0.565-0.685-0.92-1.25-0.795c-3.946,0.884-8.098,0.885-12.057,0
			c-0.559-0.124-1.123,0.23-1.25,0.795c-0.126,0.565,0.229,1.125,0.794,1.252c2.126,0.476,4.308,0.718,6.484,0.718
			c2.179,0,4.361-0.241,6.485-0.718C47.117,15.279,47.473,14.719,47.346,14.153z M24.122,18.393
			c5.226,1.17,10.591,1.764,15.946,1.764c5.355,0,10.72-0.593,15.926-1.759c0.53-0.107,0.891-0.599,0.836-1.137
			C56.081,10.07,50.968,4.17,44.453,2.297V1.048c0-0.579-0.469-1.049-1.047-1.049s-1.047,0.47-1.047,1.049v0.805
			c-0.754-0.111-1.517-0.186-2.294-0.186c-0.775,0-1.535,0.076-2.288,0.186V1.048c0-0.579-0.469-1.049-1.047-1.049
			c-0.578,0-1.047,0.47-1.047,1.049v1.247c-6.512,1.872-11.628,7.773-12.376,14.964C23.251,17.789,23.604,18.277,24.122,18.393z
			 M35.682,4.494v3.248c0,0.579,0.469,1.049,1.047,1.049c0.578,0,1.047-0.47,1.047-1.049V3.968c0.751-0.127,1.516-0.205,2.294-0.205
			c0.776,0,1.539,0.078,2.288,0.203v3.776c0,0.579,0.469,1.049,1.047,1.049s1.047-0.47,1.047-1.049V4.493
			c5.16,1.72,9.222,6.356,10.167,12.055c-9.553,2.004-19.512,2.01-29.106,0C26.46,10.85,30.52,6.216,35.682,4.494z M79.169,60.326
			c-0.935-0.941-2.4-1.399-4.476-1.399c-2.077,0-3.542,0.458-4.476,1.399c-1.251,1.26-1.241,3.028-1.233,4.587l0.001,7.28
			c0,3.152,2.561,5.717,5.708,5.717c3.147,0,5.708-2.565,5.708-5.717l0.001-7.28C80.41,63.354,80.421,61.586,79.169,60.326z
			 M78.308,64.902l-0.001,7.292c0,1.995-1.621,3.619-3.613,3.619c-1.468,0-2.729-0.885-3.295-2.148h2.133
			c0.578,0,1.047-0.47,1.047-1.049c0-0.579-0.469-1.049-1.047-1.049h-2.453v-1.771h2.453c0.578,0,1.047-0.47,1.047-1.049
			c0-0.579-0.469-1.049-1.047-1.049h-2.454v-1.91h2.454c0.578,0,1.047-0.47,1.047-1.049c0-0.579-0.469-1.049-1.047-1.049h-2.435
			c0.043-0.777,0.179-1.455,0.604-1.883c0.514-0.518,1.521-0.782,2.991-0.782c1.47,0,2.477,0.262,2.991,0.782
			C78.321,62.447,78.314,63.639,78.308,64.902z M6.09,58.237c-2.224,0-3.787,0.487-4.782,1.488
			c-1.328,1.337-1.318,3.231-1.309,4.901l0.001,7.875c0,3.363,2.732,6.099,6.089,6.099s6.089-2.736,6.089-6.099l0.001-7.876
			c0.009-1.67,0.02-3.563-1.309-4.9C9.877,58.724,8.312,58.237,6.09,58.237z M10.085,67.724h-2.74c-0.578,0-1.047,0.47-1.047,1.049
			c0,0.579,0.469,1.049,1.047,1.049h2.739v2.087H7.345c-0.578,0-1.047,0.47-1.047,1.049c0,0.579,0.469,1.049,1.047,1.049h2.439
			c-0.595,1.46-2.025,2.495-3.695,2.495c-2.203,0-3.995-1.795-3.995-4.001l-0.001-7.886c-0.007-1.383-0.015-2.692,0.699-3.41
			c0.573-0.577,1.682-0.871,3.297-0.871c1.615,0,2.724,0.293,3.297,0.871c0.496,0.499,0.641,1.286,0.683,2.183H7.345
			c-0.578,0-1.047,0.47-1.047,1.049c0,0.579,0.469,1.049,1.047,1.049h2.74V67.724z M41.668,22.931c-0.306,0-0.596,0.133-0.795,0.366
			c-0.053,0.063-0.077,0.141-0.114,0.213h-1.384c-0.037-0.072-0.061-0.15-0.114-0.213c-0.199-0.232-0.489-0.366-0.795-0.366h-8.255
			c-0.281,0-0.55,0.113-0.747,0.313c-0.197,0.201-0.305,0.472-0.301,0.753c0.018,0.981,0.185,4.27,1.625,5.442
			c0.919,0.748,2.353,1.213,3.745,1.213c1.33,0,2.446-0.422,3.143-1.188c0.755-0.829,1.258-2.567,1.545-3.858h1.689
			c0.287,1.292,0.79,3.03,1.545,3.858c0.699,0.766,1.815,1.188,3.144,1.188c1.391,0,2.826-0.465,3.745-1.213
			c1.439-1.172,1.608-4.461,1.625-5.442c0.004-0.281-0.104-0.553-0.301-0.753c-0.197-0.2-0.466-0.313-0.747-0.313H41.668z
			 M36.131,28.051c-0.292,0.321-0.873,0.504-1.596,0.504c-0.904,0-1.878-0.298-2.424-0.743c-0.361-0.294-0.657-1.535-0.786-2.784
			h5.878C36.932,26.259,36.525,27.619,36.131,28.051z M48.025,27.813c-0.546,0.444-1.52,0.742-2.424,0.742
			c-0.723,0-1.305-0.183-1.597-0.504c-0.393-0.432-0.801-1.792-1.071-3.021h5.878C48.681,26.278,48.386,27.518,48.025,27.813z
			 M73.515,56.586c-0.027,0.578,0.419,1.07,0.997,1.098c0.583,0.023,1.068-0.42,1.096-0.999l0.665-14.091
			c0.017-0.347-0.139-0.68-0.417-0.888c-0.276-0.208-0.64-0.264-0.968-0.153c-4.308,1.477-8.689,2.666-13.122,3.581
			c-1.997-1.968-4.802-3.656-8.014-4.824l0.065-1.091c0.035-0.578-0.406-1.074-0.983-1.109c-0.579-0.049-1.073,0.406-1.107,0.985
			l-0.269,4.544l-3.128-1.122c-0.549-0.197-1.145,0.088-1.34,0.634c-0.195,0.545,0.088,1.146,0.633,1.341l4.445,1.596
			c0.114,0.041,0.234,0.062,0.353,0.062c0.202,0,0.403-0.06,0.577-0.174c0.275-0.181,0.448-0.484,0.468-0.813l0.158-2.667
			c2.129,0.833,4.027,1.909,5.554,3.135c-6.052,1.095-12.191,1.685-18.377,1.727c-0.576,0.004-1.04,0.472-1.04,1.049v2.734
			c-7.369-0.021-14.683-0.787-21.86-2.304c1.914-2.742,4.805-4.823,8.75-6.332l0.157,2.657c0.02,0.329,0.193,0.63,0.468,0.813
			c0.173,0.115,0.375,0.174,0.577,0.174c0.118,0,0.238-0.021,0.353-0.062l4.446-1.596c0.545-0.195,0.827-0.796,0.633-1.341
			c-0.195-0.546-0.792-0.829-1.34-0.634l-3.13,1.122l-0.269-4.544c-0.034-0.579-0.535-1.035-1.107-0.985
			c-0.577,0.035-1.018,0.531-0.983,1.109l0.065,1.097c-4.935,1.779-8.554,4.475-10.781,8.026c-3.534-0.824-7.037-1.804-10.489-2.989
			c-0.332-0.114-0.7-0.054-0.978,0.161c-0.279,0.215-0.43,0.556-0.405,0.907l0.703,9.684c0.041,0.552,0.5,0.972,1.044,0.972
			c0.026,0,0.051-0.001,0.078-0.002c0.577-0.042,1.011-0.544,0.969-1.122l-0.59-8.114c3.231,1.056,6.504,1.942,9.802,2.69
			c0.081,0.028,0.162,0.046,0.245,0.053c7.75,1.742,15.662,2.635,23.643,2.655v21.473c0,0.579,0.469,1.049,1.047,1.049
			c0.578,0,1.047-0.47,1.047-1.049V49.441c10.979-0.178,21.819-1.998,32.254-5.414L73.515,56.586z M26.152,29.555
			c1.045,9.721,8.71,14.099,13.916,14.099c5.205,0,12.87-4.38,13.916-14.1c1.535-0.784,3.655-2.799,3.548-6.42
			c-0.02-0.681-0.081-2.752-1.566-3.314c-1.472-0.556-2.966,0.938-3.25,1.244c-0.395,0.423-0.374,1.087,0.049,1.483
			s1.086,0.374,1.481-0.049c0.278-0.297,0.725-0.612,0.957-0.686c0.071,0.136,0.209,0.509,0.235,1.385
			c0.105,3.591-2.63,4.595-2.739,4.634c-0.331,0.111-0.586,0.381-0.679,0.719l-0.045,0.165c-0.017,0.062-0.028,0.126-0.034,0.19
			c-0.801,9.562-8.346,12.655-11.875,12.655c-3.529,0-11.074-3.093-11.875-12.655c-0.006-0.065-0.017-0.13-0.035-0.193l-0.045-0.164
			c-0.093-0.337-0.348-0.605-0.679-0.715c-0.028-0.011-2.846-0.993-2.739-4.634c0.026-0.877,0.164-1.25,0.236-1.386
			c0.232,0.071,0.666,0.379,0.956,0.686c0.395,0.423,1.058,0.444,1.481,0.049c0.422-0.396,0.444-1.059,0.049-1.483
			c-0.285-0.305-1.783-1.798-3.25-1.244c-1.485,0.561-1.546,2.634-1.566,3.315C22.495,26.754,24.616,28.769,26.152,29.555z"/>
	</g>
</g>
</svg>
