<?xml version="1.0" encoding="utf-8"?>
<!-- Generator: Adobe Illustrator 19.2.1, SVG Export Plug-In . SVG Version: 6.00 Build 0)  -->
<svg version="1.1" id="Shape_1_1_" xmlns="http://www.w3.org/2000/svg" xmlns:xlink="http://www.w3.org/1999/xlink" x="0px" y="0px"
	 viewBox="0 0 76.5 76.5" style="enable-background:new 0 0 76.5 76.5;" xml:space="preserve">
<style type="text/css">
	.st0{opacity:0.3;}
	.st1{fill:#75CF2D;}
</style>
<g id="Shape_1" class="st0">
	<g>
		<path class="st1" d="M39.484,46.898V29.613h35.782l-8.329-11.105l8.329-11.105H39.484V7.176c1.433-0.511,2.468-1.868,2.468-3.475
			c0-2.041-1.661-3.702-3.702-3.702c-2.041,0-3.702,1.661-3.702,3.702c0,1.606,1.035,2.964,2.468,3.475v39.723
			C16.162,47.143,0,53.55,0,61.693C0,69.996,16.802,76.5,38.25,76.5c21.448,0,38.25-6.503,38.25-14.807
			C76.5,53.55,60.338,47.143,39.484,46.898z M70.331,9.871l-6.478,8.637l6.478,8.637H39.484V9.871H70.331z M38.25,2.467
			c0.68,0,1.234,0.554,1.234,1.234S38.93,4.935,38.25,4.935c-0.68,0-1.234-0.554-1.234-1.234S37.57,2.467,38.25,2.467z
			 M39.484,62.927v-8.616c15.312,0.216,24.677,4.371,24.677,7.382c0,3.091-9.857,7.404-25.911,7.404
			c-16.054,0-25.911-4.313-25.911-7.404c0-3.011,9.365-7.166,24.677-7.382v8.616H39.484z M38.25,74.032
			c-21.404,0-35.782-6.38-35.782-12.339c0-5.842,13.831-12.087,34.548-12.328v2.467c-13.384,0.2-27.145,3.642-27.145,9.861
			c0,6.411,14.621,9.871,28.379,9.871c13.758,0,28.379-3.46,28.379-9.871c0-6.22-13.761-9.661-27.145-9.861v-2.467
			c20.718,0.241,34.548,6.485,34.548,12.328C74.032,67.652,59.654,74.032,38.25,74.032z M44.419,22.209h-2.468v2.468h2.468V22.209z
			 M49.355,22.209h-2.468v2.468h2.468V22.209z M54.29,22.209h-2.468v2.468h2.468V22.209z"/>
	</g>
</g>
</svg>
