<?xml version="1.0" encoding="utf-8"?>
<!-- Generator: Adobe Illustrator 19.2.1, SVG Export Plug-In . SVG Version: 6.00 Build 0)  -->
<svg version="1.1" id="insta_1_" xmlns="http://www.w3.org/2000/svg" xmlns:xlink="http://www.w3.org/1999/xlink" x="0px" y="0px"
	 viewBox="0 0 9 9" style="enable-background:new 0 0 9 9;" xml:space="preserve">
<style type="text/css">
	.st0{fill:#0D47A1;}
</style>
<g id="insta">
	<g>
		<path class="st0" d="M4.5,3.585c-0.504,0-0.914,0.41-0.914,0.914c0,0.504,0.41,0.914,0.914,0.914c0.504,0,0.914-0.41,0.914-0.914
			C5.414,3.995,5.004,3.585,4.5,3.585z M5.712,2.274H3.288c-0.559,0-1.013,0.455-1.013,1.013v2.424c0,0.558,0.454,1.013,1.013,1.013
			h2.424c0.559,0,1.013-0.454,1.013-1.013V3.287C6.725,2.728,6.271,2.274,5.712,2.274z M4.5,5.893c-0.769,0-1.394-0.625-1.394-1.394
			c0-0.768,0.625-1.394,1.394-1.394c0.769,0,1.394,0.625,1.394,1.394C5.894,5.268,5.269,5.893,4.5,5.893z M6.201,3.299
			C6.136,3.364,6.045,3.402,5.952,3.402c-0.093,0-0.183-0.037-0.249-0.103C5.638,3.233,5.6,3.142,5.6,3.05
			c0-0.093,0.038-0.184,0.103-0.249C5.769,2.735,5.86,2.698,5.952,2.698c0.093,0,0.184,0.037,0.249,0.103
			C6.267,2.866,6.304,2.957,6.304,3.05C6.304,3.142,6.267,3.233,6.201,3.299z M4.498-0.001C2.016-0.001,0,2.014,0,4.497
			c0,2.486,2.016,4.502,4.498,4.502C6.984,8.999,9,6.983,9,4.497C9,2.012,6.984-0.001,4.498-0.001z M7.205,5.711
			c0,0.823-0.67,1.493-1.493,1.493H3.288c-0.823,0-1.493-0.67-1.493-1.493V3.287c0-0.823,0.67-1.493,1.493-1.493h2.424
			c0.823,0,1.493,0.67,1.493,1.493V5.711z"/>
	</g>
</g>
</svg>
