<?xml version="1.0" encoding="utf-8"?>
<!-- Generator: Adobe Illustrator 19.0.1, SVG Export Plug-In . SVG Version: 6.00 Build 0)  -->
<svg version="1.1" id="Layer_1" xmlns="http://www.w3.org/2000/svg" xmlns:xlink="http://www.w3.org/1999/xlink" x="0px" y="0px"
	 viewBox="-300 391.92 9.84 10.08" style="enable-background:new -300 391.92 9.84 10.08;" xml:space="preserve">
<style type="text/css">
	.st0{fill:#FF8400;}
</style>
<g id="Shape_1_1_">
	<g id="Shape_1">
		<g>
			<path class="st0" d="M-290.455,398.772c0.207-0.264,0.307-0.546,0.294-0.837c-0.013-0.32-0.157-0.571-0.275-0.725
				c0.138-0.341,0.19-0.879-0.269-1.296c-0.337-0.305-0.908-0.443-1.7-0.405c-0.557,0.025-1.022,0.129-1.042,0.133h-0.002
				c-0.105,0.019-0.218,0.042-0.332,0.067c-0.008-0.135,0.015-0.47,0.265-1.225c0.296-0.897,0.279-1.584-0.055-2.044
				c-0.352-0.483-0.913-0.521-1.078-0.521c-0.159,0-0.305,0.065-0.409,0.186c-0.234,0.272-0.207,0.773-0.177,1.005
				c-0.28,0.746-1.063,2.576-1.725,3.084c-0.013,0.008-0.024,0.019-0.034,0.03c-0.195,0.204-0.326,0.426-0.415,0.619
				c-0.125-0.067-0.267-0.105-0.419-0.105h-1.291c-0.487,0-0.881,0.394-0.881,0.877v3.425c0,0.485,0.396,0.877,0.881,0.877h1.291
				c0.188,0,0.364-0.059,0.508-0.16l0.497,0.059c0.076,0.011,1.431,0.182,2.822,0.154c0.252,0.019,0.489,0.03,0.709,0.03
				c0.379,0,0.709-0.03,0.984-0.088c0.648-0.138,1.09-0.412,1.315-0.815c0.171-0.307,0.171-0.614,0.144-0.807
				c0.421-0.379,0.495-0.799,0.48-1.094C-290.377,399.025-290.415,398.879-290.455,398.772z M-297.519,401.038
				c0,0.171-0.14,0.308-0.309,0.308h-1.291v0.002c-0.172,0-0.309-0.139-0.309-0.308v-3.427c0-0.171,0.14-0.308,0.309-0.308h1.291
				c0.171,0,0.309,0.139,0.309,0.308V401.038z M-290.997,398.526c-0.089,0.092-0.106,0.233-0.039,0.343
				c0,0.002,0.087,0.15,0.097,0.352c0.015,0.276-0.119,0.521-0.398,0.729c-0.099,0.076-0.14,0.206-0.097,0.324
				c0,0.002,0.091,0.28-0.057,0.544c-0.141,0.254-0.457,0.435-0.935,0.536c-0.383,0.083-0.904,0.097-1.543,0.047
				c-0.008,0-0.019,0-0.03,0c-1.361,0.029-2.737-0.148-2.752-0.15h-0.002l-0.214-0.025c0.013-0.059,0.019-0.123,0.019-0.186v-3.427
				c0-0.09-0.015-0.179-0.04-0.261c0.038-0.142,0.144-0.456,0.394-0.724c0.95-0.75,1.88-3.282,1.92-3.392
				c0.017-0.044,0.021-0.093,0.013-0.141c-0.036-0.236-0.024-0.524,0.027-0.611c0.112,0.002,0.415,0.034,0.597,0.284
				c0.216,0.298,0.207,0.829-0.025,1.533c-0.356,1.073-0.386,1.638-0.104,1.887c0.14,0.124,0.326,0.13,0.461,0.082
				c0.129-0.029,0.252-0.055,0.368-0.074c0.009-0.002,0.02-0.004,0.028-0.006c0.65-0.141,1.814-0.228,2.218,0.139
				c0.343,0.312,0.099,0.725,0.072,0.769c-0.078,0.119-0.055,0.272,0.051,0.367c0.002,0.002,0.224,0.211,0.235,0.491
				C-290.724,398.144-290.813,398.336-290.997,398.526z"/>
		</g>
	</g>
</g>
</svg>
