<?xml version="1.0" encoding="utf-8"?>
<!-- Generator: Adobe Illustrator 19.2.1, SVG Export Plug-In . SVG Version: 6.00 Build 0)  -->
<svg version="1.1" id="Forma_1_1_" xmlns="http://www.w3.org/2000/svg" xmlns:xlink="http://www.w3.org/1999/xlink" x="0px" y="0px"
	 viewBox="0 0 69.9 77.4" style="enable-background:new 0 0 69.9 77.4;" xml:space="preserve">
<style type="text/css">
	.st0{opacity:0.3;}
	.st1{fill-rule:evenodd;clip-rule:evenodd;fill:#75CF2D;}
</style>
<g id="Forma_1" class="st0">
	<g>
		<path class="st1" d="M19.476,17.182c0.135-0.017,0.247-0.053,0.352-0.103c0.043,0.028,0.075,0.068,0.123,0.09l4.569,2.13
			c0.196,0.091,0.412,0.119,0.626,0.085c6.403-1.089,13.455-1.089,19.86,0c0.059,0.01,0.119,0.015,0.178,0.015
			c0.167,0,0.334-0.04,0.484-0.117l4.139-2.13c0.042-0.022,0.07-0.06,0.108-0.087c0.106,0.052,0.213,0.103,0.332,0.118h0.004
			c0.043,0.006,0.088,0.008,0.131,0.008c0.011,0,0.016,0.001,0.021,0c0.586,0,1.059-0.474,1.059-1.059
			c0-0.072-0.007-0.143-0.021-0.212C51.438,8.055,51.292,0,34.861,0c-16.58,0-16.58,8.202-16.58,16.132
			c0,0.305,0.132,0.593,0.361,0.794C18.869,17.127,19.169,17.223,19.476,17.182z M45.012,17.238
			c-6.429-1.051-13.464-1.05-19.893,0.003l-2.985-1.391c2.531-0.927,7.114-2.075,11.967-2.075c0.245,0,0.489,0.002,0.787,0.008
			c5.175-0.11,10.172,1.137,12.786,2.084L45.012,17.238z M34.861,2.119c13.294,0,14.368,5.226,14.454,12.153
			c-2.901-1.293-8.427-2.613-13.695-2.613c-0.262,0-0.524,0.003-0.733,0.01c-5.525-0.143-11.436,1.244-14.481,2.603
			C20.493,7.344,21.566,2.119,34.861,2.119z M36.577,25.02c-0.309,0-0.604,0.136-0.804,0.37c-0.054,0.064-0.078,0.143-0.115,0.215
			h-1.399c-0.037-0.073-0.061-0.151-0.115-0.215c-0.201-0.235-0.495-0.37-0.804-0.37h-8.347c-0.285,0-0.556,0.114-0.755,0.317
			c-0.199,0.202-0.309,0.476-0.304,0.76c0.018,0.99,0.187,4.311,1.643,5.494c0.93,0.755,2.381,1.224,3.787,1.224
			c1.344,0,2.473-0.425,3.179-1.198c0.763-0.836,1.272-2.591,1.562-3.895h1.707c0.29,1.304,0.798,3.058,1.562,3.895
			c0.706,0.773,1.835,1.198,3.179,1.198c1.406,0,2.857-0.469,3.787-1.224c1.455-1.183,1.625-4.504,1.643-5.494
			c0.005-0.284-0.105-0.558-0.304-0.76c-0.199-0.203-0.47-0.317-0.755-0.317H36.577z M30.978,30.19
			c-0.295,0.324-0.884,0.509-1.615,0.509c-0.914,0-1.899-0.302-2.451-0.75c-0.365-0.297-0.664-1.549-0.793-2.811h5.942
			C31.788,28.38,31.376,29.753,30.978,30.19z M43.003,29.948c-0.551,0.449-1.537,0.75-2.451,0.75c-0.731,0-1.32-0.186-1.615-0.509
			c-0.398-0.435-0.809-1.809-1.082-3.05h5.942C43.668,28.4,43.369,29.651,43.003,29.948z M20.179,29.539
			c1.099,10.33,9.246,14.983,14.78,14.983s13.68-4.653,14.779-14.983c1.623-0.817,3.89-2.946,3.778-6.794
			c-0.022-0.715-0.086-2.89-1.633-3.475c-1.531-0.581-3.101,0.989-3.401,1.309c-0.399,0.428-0.376,1.098,0.051,1.497
			c0.424,0.398,1.095,0.378,1.496-0.05c0.352-0.376,0.941-0.769,1.057-0.803c0.002,0.003,0.273,0.279,0.311,1.584
			c0.113,3.864-2.839,4.944-2.958,4.985c-0.336,0.113-0.593,0.385-0.686,0.727l-0.048,0.175c-0.016,0.062-0.028,0.125-0.033,0.19
			c-0.858,10.214-8.936,13.519-12.714,13.519c-3.779,0-11.857-3.305-12.714-13.519c-0.005-0.064-0.016-0.127-0.033-0.19
			l-0.048-0.175c-0.091-0.337-0.351-0.609-0.68-0.724c-0.126-0.044-3.078-1.124-2.965-4.989c0.035-1.165,0.254-1.509,0.238-1.545
			c0.221,0.015,0.771,0.385,1.13,0.764c0.401,0.428,1.073,0.448,1.496,0.05c0.427-0.399,0.45-1.07,0.051-1.497
			c-0.3-0.32-1.871-1.892-3.4-1.309c-1.547,0.585-1.611,2.761-1.633,3.475C16.288,26.593,18.555,28.722,20.179,29.539z
			 M31.327,50.245c-0.32,0-0.624,0.145-0.825,0.395c-0.2,0.25-0.278,0.577-0.209,0.891l1.225,5.588
			c0.107,0.486,0.537,0.833,1.035,0.833h4.766c0.498,0,0.928-0.348,1.035-0.833l1.225-5.588c0.07-0.314-0.008-0.641-0.209-0.891
			c-0.201-0.25-0.504-0.395-0.825-0.395H31.327z M36.468,55.833h-3.062l-0.761-3.47h4.583L36.468,55.833z M53.218,56.892
			c-2.068,0-3.526,0.455-4.458,1.393c-1.249,1.254-1.239,3.01-1.229,4.56l0.001,7.216c0,3.135,2.551,5.686,5.687,5.686
			c3.136,0,5.686-2.551,5.686-5.686l0.001-7.216c0.01-1.549,0.019-3.305-1.229-4.56C56.744,57.347,55.286,56.892,53.218,56.892z
			 M56.787,62.833l-0.002,7.227c0,1.968-1.601,3.569-3.568,3.569c-1.44,0-2.676-0.861-3.24-2.091h2.086
			c0.586,0,1.059-0.475,1.059-1.059c0-0.585-0.473-1.059-1.059-1.059h-2.416v-1.718h2.417c0.586,0,1.059-0.474,1.059-1.059
			c0-0.585-0.473-1.059-1.059-1.059h-2.417v-1.855h2.417c0.586,0,1.059-0.474,1.059-1.059c0-0.584-0.473-1.059-1.059-1.059h-2.389
			c0.044-0.754,0.173-1.418,0.586-1.833c0.507-0.51,1.502-0.769,2.957-0.769c1.454,0,2.448,0.26,2.956,0.769
			C56.801,60.406,56.795,61.585,56.787,62.833z M45.696,59.401H24.174c-0.586,0-1.059,0.474-1.059,1.059v12.575
			c0,0.585,0.473,1.059,1.059,1.059h21.523c0.586,0,1.059-0.474,1.059-1.059V60.46C46.756,59.875,46.282,59.401,45.696,59.401z
			 M44.637,71.976H25.233V61.518h19.404V71.976z M50.392,41.111l0.008-0.125c0.038-0.583-0.404-1.087-0.988-1.126
			c-0.582-0.034-1.088,0.404-1.126,0.988l-0.299,4.548l-3.656-1.717c-0.534-0.249-1.161-0.02-1.408,0.508
			c-0.248,0.529-0.021,1.16,0.508,1.409l5.06,2.375c0.143,0.067,0.297,0.1,0.45,0.1c0.186,0,0.373-0.049,0.538-0.147
			c0.302-0.178,0.497-0.493,0.519-0.843l0.25-3.791c4.028,1.458,17.533,8.201,17.533,33.049c0,0.585,0.473,1.059,1.059,1.059
			c0.586,0,1.059-0.474,1.059-1.059C69.9,49.174,54.191,42.361,50.392,41.111z M16.691,56.892c-2.067,0-3.527,0.455-4.458,1.393
			c-1.247,1.254-1.238,3.009-1.228,4.558l0.001,7.217c0,3.135,2.55,5.686,5.686,5.686c3.136,0,5.687-2.551,5.687-5.686l0.001-7.216
			c0.01-1.549,0.019-3.305-1.229-4.56C20.218,57.347,18.759,56.892,16.691,56.892z M20.26,65.585h-2.417
			c-0.586,0-1.059,0.474-1.059,1.059c0,0.585,0.473,1.059,1.059,1.059h2.417v1.718h-2.416c-0.586,0-1.059,0.474-1.059,1.059
			c0,0.585,0.473,1.059,1.059,1.059h2.086c-0.564,1.23-1.8,2.091-3.241,2.093c-1.967,0-3.568-1.601-3.568-3.569l-0.001-7.229
			c-0.007-1.246-0.014-2.424,0.612-3.054c0.507-0.51,1.502-0.769,2.957-0.769c1.455,0,2.45,0.258,2.957,0.769
			c0.413,0.415,0.541,1.079,0.586,1.833h-2.389c-0.586,0-1.059,0.475-1.059,1.059c0,0.585,0.473,1.059,1.059,1.059h2.417V65.585z
			 M19.666,43.27l0.251,3.813c0.022,0.35,0.217,0.665,0.519,0.843c0.165,0.097,0.352,0.147,0.538,0.147
			c0.154,0,0.307-0.033,0.45-0.1l5.06-2.375c0.53-0.249,0.757-0.879,0.508-1.409c-0.247-0.529-0.88-0.757-1.409-0.508l-3.656,1.717
			l-0.299-4.548c-0.039-0.583-0.549-1.021-1.126-0.988c-0.585,0.039-1.026,0.543-0.988,1.126l0.007,0.12
			C15.751,42.342,0,49.138,0,76.34C0,76.925,0.473,77.4,1.059,77.4c0.586,0,1.059-0.474,1.059-1.059
			C2.118,51.194,15.613,44.664,19.666,43.27z M34.936,71.776c2.774,0,5.03-2.257,5.03-5.03c0-2.773-2.257-5.03-5.03-5.03
			s-5.03,2.256-5.03,5.03C29.905,69.52,32.162,71.776,34.936,71.776z M34.936,63.834c1.607,0,2.912,1.306,2.912,2.912
			c0,1.606-1.306,2.912-2.912,2.912c-1.607,0-2.912-1.306-2.912-2.912C32.023,65.141,33.329,63.834,34.936,63.834z"/>
	</g>
</g>
</svg>
