<?xml version="1.0" encoding="utf-8"?>
<!-- Generator: Adobe Illustrator 19.0.1, SVG Export Plug-In . SVG Version: 6.00 Build 0)  -->
<svg version="1.1" xmlns="http://www.w3.org/2000/svg" xmlns:xlink="http://www.w3.org/1999/xlink" x="0px" y="0px"
	 viewBox="0 0 49.92 52.32" style="enable-background:new 0 0 49.92 52.32;" xml:space="preserve">
<style type="text/css">
	.st0{opacity:0.302;enable-background:new    ;}
	.st1{fill-rule:evenodd;clip-rule:evenodd;fill:#75CF2D;}
</style>
<g id="Background_xA0_Image_1_">
</g>
<g id="Forma_1_1_" class="st0">
	<g id="Forma_1">
		<g>
			<path class="st1" d="M12.82,20.602c0.915,8.445,7.57,12.248,12.091,12.248s11.176-3.804,12.091-12.248
				c1.316-0.684,3.227-2.486,3.134-5.645c-0.017-0.568-0.068-2.294-1.255-2.743c-1.178-0.445-2.417,0.794-2.654,1.047
				c-0.274,0.294-0.259,0.754,0.034,1.028c0.294,0.275,0.754,0.259,1.027-0.034c0.377-0.404,0.931-0.724,1.078-0.681
				c0.003,0.001,0.282,0.206,0.318,1.427c0.098,3.344-2.512,4.392-2.619,4.434c-0.263,0.098-0.446,0.34-0.469,0.62
				c-0.719,8.571-7.508,11.343-10.684,11.343s-9.965-2.772-10.685-11.343c-0.023-0.277-0.206-0.518-0.466-0.618
				c-0.111-0.044-2.721-1.092-2.623-4.435c0.036-1.22,0.315-1.426,0.316-1.427c0.149-0.043,0.689,0.267,1.08,0.68
				c0.275,0.293,0.735,0.308,1.027,0.034s0.308-0.734,0.034-1.028c-0.236-0.253-1.475-1.493-2.654-1.047
				c-1.188,0.448-1.239,2.176-1.255,2.743C9.593,18.115,11.503,19.917,12.82,20.602z M35.256,31.573l0.074-1.35
				c0.022-0.401-0.286-0.743-0.686-0.765c-0.397-0.027-0.743,0.286-0.765,0.686l-0.288,5.266l-3.41-1.602
				c-0.363-0.171-0.796-0.015-0.966,0.349c-0.171,0.363-0.015,0.796,0.349,0.967l4.385,2.059c0.098,0.046,0.203,0.069,0.309,0.069
				c0.129,0,0.258-0.034,0.373-0.103c0.207-0.124,0.339-0.343,0.352-0.584l0.19-3.477c2.895,1.098,13.054,5.852,13.054,18.505
				c0,0.401,0.326,0.727,0.727,0.727s0.727-0.326,0.727-0.727C49.68,37.396,37.741,32.449,35.256,31.573z M13.742,11.844
				c0.001,0,0.002,0,0.003,0c0.4,0,0.725-0.323,0.727-0.724c0.009-1.894,0.597-3.633,1.656-4.893
				c0.258-0.307,0.219-0.766-0.089-1.024c-0.307-0.257-0.766-0.219-1.024,0.089c-1.277,1.52-1.987,3.589-1.997,5.823
				C13.016,11.515,13.34,11.842,13.742,11.844z M26.325,14.97c-0.212,0-0.413,0.093-0.551,0.254
				c-0.065,0.076-0.109,0.164-0.138,0.257h-1.449c-0.029-0.092-0.073-0.181-0.138-0.257c-0.138-0.161-0.339-0.254-0.551-0.254
				h-7.291c-0.195,0-0.381,0.079-0.518,0.217c-0.137,0.139-0.211,0.327-0.208,0.522c0.011,0.6,0.126,3.645,1.362,4.65
				c0.777,0.632,1.997,1.025,3.182,1.025c1.117,0,2.052-0.35,2.63-0.983c0.669-0.734,1.111-2.339,1.352-3.467h1.808
				c0.241,1.128,0.683,2.733,1.352,3.467c0.578,0.634,1.513,0.983,2.63,0.983c1.184,0,2.404-0.392,3.182-1.025
				c1.236-1.005,1.351-4.049,1.362-4.65c0.003-0.195-0.072-0.383-0.208-0.522c-0.137-0.139-0.323-0.217-0.518-0.217H26.325z
				 M21.582,19.421c-0.295,0.324-0.862,0.509-1.556,0.509c-0.841,0-1.752-0.281-2.267-0.699c-0.395-0.321-0.684-1.584-0.787-2.807
				h5.655C22.384,17.603,21.984,18.98,21.582,19.421z M32.063,19.232c-0.515,0.418-1.425,0.699-2.266,0.699
				c-0.694,0-1.261-0.186-1.557-0.509c-0.402-0.441-0.802-1.819-1.045-2.998h5.655C32.748,17.647,32.458,18.911,32.063,19.232z
				 M18.142,4.289h10.666c0.236,0.003,5.792,0.152,5.792,6.708c0,0.401,0.326,0.727,0.727,0.727c0.401,0,0.727-0.326,0.727-0.727
				c0-7.974-7.154-8.161-7.236-8.162H18.142c-0.401,0-0.727,0.326-0.727,0.727C17.415,3.963,17.741,4.289,18.142,4.289z
				 M19.357,1.453h10.079c0.272-0.011,6.816-0.029,7.599,6.667c0.044,0.37,0.357,0.643,0.721,0.643c0.028,0,0.057-0.001,0.086-0.005
				c0.398-0.047,0.684-0.408,0.637-0.806c-0.934-7.982-8.988-7.955-9.054-7.952H19.357c-0.401,0-0.727,0.326-0.727,0.727
				C18.631,1.127,18.955,1.453,19.357,1.453z M39.27,48.348c-0.401,0-0.727,0.326-0.727,0.727v2.519
				c0,0.401,0.325,0.727,0.727,0.727s0.727-0.326,0.727-0.727v-2.519C39.997,48.673,39.671,48.348,39.27,48.348z M21.335,46.198
				c-0.102,0.591-0.203,1.167-0.298,1.715l7.287,3.68h1.099c-0.062-0.347-0.147-0.839-0.25-1.43L21.335,46.198z M20.398,51.593
				h4.703l-4.322-2.183C20.618,50.341,20.484,51.108,20.398,51.593z M10.41,48.348c-0.401,0-0.727,0.326-0.727,0.727v2.519
				c0,0.401,0.326,0.727,0.727,0.727c0.401,0,0.727-0.326,0.727-0.727v-2.519C11.136,48.673,10.811,48.348,10.41,48.348z
				 M20.465,34.158c-0.171-0.363-0.605-0.52-0.966-0.349l-3.41,1.602l-0.288-5.266c-0.023-0.4-0.373-0.714-0.765-0.686
				c-0.4,0.022-0.708,0.365-0.686,0.765l0.074,1.35C11.939,32.449,0,37.396,0,51.593c0,0.401,0.326,0.727,0.727,0.727
				s0.727-0.326,0.727-0.727c0-12.802,10.123-17.44,13.053-18.515l0.191,3.487c0.013,0.241,0.145,0.46,0.352,0.584
				c0.115,0.068,0.243,0.103,0.373,0.103c0.105,0,0.211-0.022,0.309-0.069l4.385-2.059C20.48,34.953,20.636,34.521,20.465,34.158z
				 M27.563,33.739h-5.304c-0.401,0-0.727,0.326-0.727,0.727c0,1.304,0.659,2.217,1.435,2.813c-0.04,0.145-0.105,0.45-0.188,0.873
				l4.704,2.36c-0.296-1.637-0.533-2.887-0.628-3.232c0.776-0.595,1.435-1.508,1.435-2.812C28.29,34.065,27.964,33.74,27.563,33.739
				z M24.912,36.664c-0.395-0.124-1.427-0.527-1.794-1.472h3.588C26.34,36.138,25.313,36.54,24.912,36.664z M28.488,46.209
				l-6.575-3.312c-0.105,0.591-0.211,1.197-0.317,1.804l7.268,3.676C28.747,47.698,28.62,46.965,28.488,46.209z M22.178,41.403
				l5.999,3.022c-0.126-0.721-0.252-1.44-0.374-2.128l-5.305-2.661C22.4,40.169,22.292,40.768,22.178,41.403z"/>
		</g>
	</g>
</g>
</svg>
