<?xml version="1.0" encoding="utf-8"?>
<!-- Generator: Adobe Illustrator 19.2.1, SVG Export Plug-In . SVG Version: 6.00 Build 0)  -->
<svg version="1.1" xmlns="http://www.w3.org/2000/svg" xmlns:xlink="http://www.w3.org/1999/xlink" x="0px" y="0px"
	 viewBox="0 0 322 351" style="enable-background:new 0 0 322 351;" xml:space="preserve">
<style type="text/css">
	.st0{enable-background:new    ;}
	.st1{fill:#FF8400;}
</style>
<g id="Forma_1_1_" class="st0">
	<g id="Forma_1">
		<g>
			<path class="st1" d="M321.2,298.1c-0.4-0.3-0.8-0.3-1.2,0l-15.8,11.2c-7.2-110.5-68.1-220.5-191.2-277C79.5,16.9,42.6,6.4,4.2,2
				C1,1.6-0.5,5.7,2.8,6.1c67.4,7.7,129.4,34.5,177.8,72.7c51.4,40.6,85.6,93.3,103.5,149.2c8.5,26.6,13.3,53.9,15,81.4l-14.4-11.3
				c-0.4-0.3-0.8-0.3-1.2,0c0,0-0.1,0.1-0.1,0.1c-0.3,0.3-0.4,0.7-0.2,1l17.5,51.6c0.1,0.4,0.5,0.7,0.9,0.7c0.4,0,0.8-0.3,1-0.7
				l19-51.5C321.7,298.9,321.6,298.4,321.2,298.1z"/>
		</g>
	</g>
</g>
<g id="Фигура_3_1_" class="st0">
	<g id="Фигура_3">
		<g>
			<path class="st1" d="M184.3,27.5c-0.1-1.2-0.7-2.2-1.8-2.9c-1.3-0.9-3-0.9-4.9-0.2l-0.1-0.1l1.4-1.8l-2.6-1.7L161,36.5l3.4,2.2
				l3.2-3.3c0.9-0.9,1.7-1.9,2.6-3l0.1,0.1c0,0.9,0.1,1.6,0.3,2.2c0.3,0.6,0.7,1,1.3,1.4c1.1,0.7,2.3,0.9,3.7,0.7
				c1.4-0.2,2.7-0.8,4.1-1.8c1.4-1,2.5-2.2,3.4-3.6C184.1,30,184.5,28.7,184.3,27.5z M179.6,29.4c-0.6,0.9-1.3,1.7-2.1,2.4
				c-0.9,0.7-1.7,1.2-2.5,1.4c-0.8,0.2-1.4,0.2-1.9-0.2c-0.5-0.3-0.7-0.7-0.8-1.3c0-0.5,0.1-1.1,0.5-1.7c0.7-1,1.4-1.8,2.2-2.5
				c0.8-0.7,1.6-1.1,2.4-1.3c0.8-0.2,1.4-0.1,2,0.2C180.4,27.1,180.5,28.1,179.6,29.4z M186.3,38.7l0.2-0.2l0.5,0.4
				c2.2,1.6,4.2,2.5,5.9,2.6c1.7,0.1,3.1-0.5,4-1.8c0.7-1,1-2.1,0.7-3.2c-0.3-1.1-1.1-2.1-2.3-3c-1.3-0.9-2.7-1.4-4.1-1.5
				c-1.5-0.1-2.9,0.3-4.4,1.1c-1.5,0.8-2.7,1.9-3.8,3.4c-1.1,1.5-1.5,2.9-1.2,4.3c0.2,1.4,1.1,2.7,2.6,3.8c1.6,1.1,3.2,1.8,4.9,2.1
				l1.8-2.4c-1-0.2-1.8-0.4-2.4-0.6c-0.6-0.2-1.2-0.6-1.8-1c-0.7-0.5-1.1-1.1-1.2-1.7c-0.1-0.6,0.1-1.3,0.6-1.9L186.3,38.7z
				 M191,35.3c1-0.2,1.8,0,2.4,0.4c0.8,0.5,0.9,1.2,0.4,1.8c-0.4,0.6-1.1,0.8-2,0.7c-0.9-0.1-1.9-0.6-3-1.4l-0.5-0.4
				C189.1,35.9,190,35.4,191,35.3z M215.9,50.3l-4.9,3.9c-1.4,1.1-2.7,1.9-3.9,2.2c-1.2,0.4-2,0.3-2.7-0.2c-0.7-0.6-0.7-1.3,0-2.1
				c0.3-0.3,0.7-0.7,1.2-1.1l6.9-5.5l-3.1-2.6l-4.9,3.9c-1.5,1.2-2.8,1.9-3.9,2.2c-1.1,0.3-2,0.2-2.6-0.3c-0.7-0.6-0.7-1.3,0-2.1
				c0.3-0.3,0.7-0.7,1.2-1.1l6.9-5.5l-3.1-2.6l-6.7,5.4c-0.8,0.6-1.3,1.1-1.8,1.6c-0.9,1.1-1.3,2.1-1.3,3.1c0,1,0.5,1.8,1.4,2.6
				c1.5,1.2,3.3,1.4,5.6,0.7l0.1,0.1c-1,1.8-0.7,3.3,0.8,4.5c1.4,1.2,3.3,1.4,5.5,0.7l0.1,0.1l-2,1.9l2.3,1.9l11.9-9.4L215.9,50.3z
				 M218.9,69.2c-0.6-0.3-1.1-0.7-1.7-1.3c-0.6-0.6-0.9-1.2-0.9-1.9c0-0.7,0.3-1.3,0.8-1.9l0.2-0.2l0.2-0.2l0.5,0.5
				c2,1.9,3.8,3,5.5,3.4c1.7,0.4,3.1-0.1,4.2-1.3c0.9-0.9,1.2-1.9,1.1-3.1c-0.1-1.1-0.8-2.2-1.9-3.3c-1.1-1.1-2.4-1.8-3.9-2.1
				c-1.5-0.3-3-0.1-4.5,0.5c-1.6,0.6-3,1.6-4.2,2.9c-1.2,1.3-1.8,2.7-1.8,4.1c0.1,1.4,0.8,2.8,2.1,4.1c1.4,1.3,2.9,2.2,4.6,2.7
				l2.1-2.2C220.2,69.8,219.5,69.5,218.9,69.2z M222.4,61.2c1,0,1.8,0.2,2.3,0.7c0.7,0.6,0.7,1.3,0.2,1.9c-0.5,0.5-1.2,0.7-2,0.5
				c-0.9-0.2-1.8-0.8-2.8-1.7l-0.4-0.4C220.5,61.6,221.4,61.3,222.4,61.2z M239.7,73.4l-4.9,3.1l-3.2-3.4l5-3.1l-2.8-2.9l-12.9,8
				l2.8,2.9l5.3-3.3l3.2,3.3l-5.3,3.3l2.8,2.9l12.9-8L239.7,73.4z M251,86.1l-5.5,3c-1.6,0.9-3,1.4-4.2,1.6
				c-1.2,0.2-2.1-0.1-2.6-0.7c-0.6-0.7-0.5-1.4,0.3-2.2c0.3-0.3,0.8-0.6,1.3-0.9l7.7-4.3l-2.6-3l-7.1,4c-0.9,0.5-1.7,1.1-2.3,1.6
				c-1,0.9-1.6,1.8-1.7,2.8c-0.1,1,0.2,1.9,1,2.8c1.2,1.4,3,1.9,5.4,1.6l0.1,0.1l-2.3,1.6l2,2.3l13.2-7.3L251,86.1z M260.3,103.6
				c1-0.8,1.5-1.7,1.5-2.9c0-1.1-0.5-2.3-1.4-3.6c-1-1.2-2.2-2.1-3.6-2.6c-1.4-0.5-2.9-0.6-4.5-0.2c-1.6,0.4-3.2,1.1-4.6,2.2
				c-1.4,1.1-2.2,2.4-2.4,3.8c-0.1,1.4,0.4,2.9,1.5,4.3c1.2,1.5,2.6,2.6,4.1,3.4l2.4-1.9c-0.9-0.4-1.6-0.9-2.1-1.2
				c-0.5-0.4-1-0.9-1.5-1.5c-0.5-0.7-0.8-1.3-0.7-2c0.1-0.6,0.4-1.2,1.1-1.7l0.2-0.2l0.2-0.2l0.4,0.5c1.7,2.2,3.4,3.5,5,4.1
				C257.6,104.8,259,104.6,260.3,103.6z M255.8,100.8c-0.8-0.3-1.6-1-2.5-2.1l-0.4-0.5c0.9-0.5,1.9-0.6,2.9-0.5
				c1,0.1,1.7,0.5,2.2,1.1c0.6,0.7,0.5,1.4-0.1,1.9C257.3,101.1,256.6,101.2,255.8,100.8z M254.1,110.2c-0.4-0.1-0.8,0.1-1.2,0.4
				c-0.3,0.2-0.5,0.5-0.5,0.8c0,0.3,0.1,0.6,0.3,1c0.3,0.4,0.7,0.6,1.1,0.7c0.4,0.1,0.8,0,1.2-0.3c0.3-0.2,0.5-0.5,0.5-0.8
				c0-0.3-0.1-0.6-0.3-0.9C254.9,110.5,254.5,110.3,254.1,110.2z M263.3,105.7l-7.3,3.8l1.2,1.6l7.8-3.2L263.3,105.7z"/>
		</g>
	</g>
</g>
</svg>
