<?xml version="1.0" encoding="utf-8"?>
<!-- Generator: Adobe Illustrator 19.2.1, SVG Export Plug-In . SVG Version: 6.00 Build 0)  -->
<svg version="1.1" id="Forma_1_1_" xmlns="http://www.w3.org/2000/svg" xmlns:xlink="http://www.w3.org/1999/xlink" x="0px" y="0px"
	 viewBox="0 0 76.2 74.7" style="enable-background:new 0 0 76.2 74.7;" xml:space="preserve">
<style type="text/css">
	.st0{opacity:0.3;}
	.st1{fill-rule:evenodd;clip-rule:evenodd;fill:#75CF2D;}
</style>
<g id="Forma_1" class="st0">
	<g>
		<path class="st1" d="M46.148,26.945c-0.561,0-1.015,0.455-1.015,1.017s0.454,1.017,1.015,1.017h19.548
			c0.561,0,1.015-0.455,1.015-1.017s-0.454-1.017-1.015-1.017H46.148z M28.384,20.305h-5.157c-0.561,0-1.015,0.456-1.015,1.017
			c0,0.561,0.454,1.017,1.015,1.017h5.157c0.561,0,1.015-0.455,1.015-1.017C29.399,20.761,28.946,20.305,28.384,20.305z
			 M52.162,2.034h7.522c0.561,0,1.015-0.456,1.015-1.017C60.698,0.455,60.245,0,59.683,0h-7.522c-0.561,0-1.015,0.455-1.015,1.017
			C51.147,1.578,51.601,2.034,52.162,2.034z M43.79,26.279h24.265c0.561,0,1.015-0.456,1.015-1.017V3.732
			c0-0.561-0.454-1.017-1.015-1.017H43.79c-0.561,0-1.015,0.456-1.015,1.017v21.53C42.775,25.823,43.229,26.279,43.79,26.279z
			 M44.805,4.749h22.236v19.496H44.805V4.749z M59.127,11.68l-3.031,1.989l-1.26-1.406c-0.374-0.419-1.017-0.452-1.433-0.078
			c-0.417,0.375-0.452,1.018-0.077,1.436l1.842,2.056c0.198,0.221,0.476,0.337,0.755,0.337c0.193,0,0.386-0.055,0.556-0.167
			l3.761-2.468c0.469-0.307,0.6-0.937,0.293-1.407C60.225,11.504,59.597,11.371,59.127,11.68z M55.923,5.919
			c-4.721,0-8.563,3.848-8.563,8.58c0,4.731,3.841,8.58,8.563,8.58c4.722,0,8.563-3.848,8.563-8.58
			C64.485,9.767,60.643,5.919,55.923,5.919z M55.923,21.043c-3.602,0-6.533-2.936-6.533-6.546c0-3.61,2.931-6.547,6.533-6.547
			c3.602,0,6.533,2.937,6.533,6.547C62.456,18.107,59.524,21.043,55.923,21.043z M1.018,29.043h34.02
			c0.561,0,1.015-0.455,1.015-1.017c0-0.561-0.454-1.017-1.015-1.017H1.018c-0.561,0-1.015,0.456-1.015,1.017
			C0.003,28.587,0.457,29.043,1.018,29.043z M1.018,42.277h34.02c0.561,0,1.015-0.455,1.015-1.017c0-0.561-0.454-1.017-1.015-1.017
			H1.018c-0.561,0-1.015,0.456-1.015,1.017C0.003,41.822,0.457,42.277,1.018,42.277z M36.052,43.907
			c0-0.561-0.454-1.017-1.015-1.017H1.018c-0.561,0-1.015,0.455-1.015,1.017c0,0.561,0.454,1.017,1.015,1.017h34.02
			C35.599,44.924,36.052,44.468,36.052,43.907z M25.754,48.745c-0.028-0.057-0.04-0.122-0.072-0.177
			c-0.639-1.114-1.772-1.452-2.151-1.536c-0.435-0.149-1.647-0.417-4.723-0.417h-0.021c-4.634,0.001-5.561,2.286-5.634,2.499
			l-2.866,7.096c-1.174,0.981-2.125,2.319-2.661,4.041c-1.458,4.13-4.901,12.971-4.936,13.06c-0.204,0.524,0.055,1.112,0.576,1.317
			c0.52,0.203,1.11-0.054,1.314-0.577c0.031-0.082,2.869-7.366,4.502-11.857c1.244-1.249,3.939-2.181,6.307-2.013
			c1.713,0.122,3.214,0.806,3.826,1.745c0.181,0.277,0.278,0.578,0.313,0.902c-1.47,4.461-3.337,10.479-3.359,10.552
			c-0.166,0.536,0.133,1.106,0.668,1.272c0.102,0.032,0.202,0.046,0.301,0.046c0.433,0,0.834-0.279,0.969-0.716
			c0.027-0.088,2.76-8.903,4.221-13.113c0.169-0.595,0.213-1.171,0.183-1.729c0.044,0,0.079,0.003,0.124,0.003
			c2.035,0,5.487-0.488,6.33-3.681c0.646-2.441,1.112-4.207,0.137-5.47C28.488,49.198,27.44,48.808,25.754,48.745z M20.393,60.255
			c-0.055,0.156-0.114,0.332-0.172,0.5c-1.122-1.362-3.129-1.983-4.725-2.096c-1.784-0.126-3.817,0.282-5.465,1.075
			c1.705-3.315,5.465-3.934,7.855-3.218C18.66,56.749,21.119,57.704,20.393,60.255z M26.995,54.97
			c-0.583,2.203-3.835,2.201-5.087,2.114c-0.669-1.141-1.845-2.039-3.438-2.517c-1.713-0.513-3.616-0.485-5.367,0.088l1.93-4.78
			c0.006-0.012,0.613-1.226,3.753-1.227h0.021c3.127,0,3.997,0.282,4.009,0.282c0.077,0.037,0.176,0.067,0.26,0.083
			c0.006,0.001,0.597,0.12,0.851,0.579c0.278,0.501,0.084,1.266-0.128,1.819c-0.201,0.525,0.061,1.113,0.583,1.314
			c0.523,0.2,1.111-0.061,1.311-0.585c0.182-0.475,0.279-0.916,0.338-1.343c0.993,0.08,1.352,0.295,1.463,0.438
			C27.858,51.706,27.442,53.278,26.995,54.97z M76.163,62.947l-7.565-27.797c-0.121-0.442-0.522-0.749-0.979-0.749H41.928
			c-0.458,0-0.859,0.307-0.979,0.749l-7.565,27.797c-0.083,0.306-0.019,0.633,0.173,0.885c0.192,0.252,0.49,0.399,0.807,0.399
			h21.223c1.416,4.331,3.076,9.683,3.097,9.751c0.135,0.436,0.536,0.716,0.969,0.716c0.099,0,0.201-0.015,0.301-0.046
			c0.535-0.167,0.834-0.736,0.668-1.272c-0.023-0.073-1.898-6.119-3.359-10.551c0.034-0.325,0.132-0.626,0.313-0.903
			c0.612-0.938,2.113-1.623,3.827-1.745c2.356-0.168,5.058,0.765,6.305,2.014c1.624,4.462,4.471,11.775,4.503,11.856
			c0.204,0.524,0.794,0.781,1.314,0.578c0.523-0.204,0.781-0.794,0.576-1.317c-0.025-0.066-1.91-4.904-3.477-9.08h4.561
			c0.317,0,0.614-0.149,0.807-0.4C76.182,63.579,76.247,63.252,76.163,62.947z M54.884,57.091c-1.251,0.1-4.581,0.152-5.081-2.083
			l-0.125-0.551c-0.334-1.465-0.649-2.85-0.326-3.253c0.084-0.109,0.396-0.329,1.402-0.408c0.059,0.426,0.155,0.868,0.338,1.344
			c0.005,0.013,0.016,0.021,0.022,0.034c0.111,0.278,0.327,0.511,0.635,0.604c0.098,0.03,0.196,0.044,0.293,0.044
			c0.436,0,0.839-0.284,0.971-0.723l0.952-3.16c0.205-0.06,1.18-0.291,4.016-0.291h0.021c3.141,0.001,3.747,1.214,3.753,1.229
			l1.93,4.781c-1.752-0.575-3.654-0.602-5.367-0.089C56.726,55.045,55.55,55.944,54.884,57.091z M61.293,58.66
			c-1.598,0.114-3.604,0.734-4.727,2.097c-0.051-0.15-0.104-0.307-0.153-0.445c-0.743-2.606,1.715-3.563,2.487-3.794
			c2.384-0.715,6.128-0.101,7.849,3.214C65.102,58.938,63.072,58.531,61.293,58.66z M69.866,62.196L69.866,62.196
			c-0.258-0.7-0.494-1.352-0.691-1.91c-0.54-1.734-1.494-3.08-2.669-4.066l-2.853-7.061c-0.09-0.26-1.018-2.545-5.651-2.546h-0.021
			c-1.545,0-2.619,0.068-3.362,0.155l1.629-5.409c0.162-0.538-0.142-1.105-0.678-1.268c-0.539-0.16-1.103,0.143-1.264,0.679
			l-1.996,6.627c-0.42,0.234-0.877,0.599-1.206,1.17c-0.03,0.054-0.043,0.116-0.07,0.172c-1.223,0.039-2.527,0.262-3.27,1.193
			c-0.935,1.169-0.571,2.767-0.068,4.977l0.124,0.544c0.716,3.195,4.046,3.715,6.136,3.715c0.119,0,0.219-0.005,0.33-0.008
			c-0.029,0.566,0.016,1.154,0.191,1.764c0.134,0.385,0.281,0.82,0.433,1.273H35.691l7.011-25.764h24.142l7.011,25.764H69.866z
			 M1.018,31.689h34.02c0.561,0,1.015-0.455,1.015-1.017s-0.454-1.017-1.015-1.017H1.018c-0.561,0-1.015,0.455-1.015,1.017
			C0.003,31.235,0.457,31.689,1.018,31.689z M1.018,34.336h34.02c0.561,0,1.015-0.455,1.015-1.017c0-0.561-0.454-1.017-1.015-1.017
			H1.018c-0.561,0-1.015,0.455-1.015,1.017C0.003,33.881,0.457,34.336,1.018,34.336z M1.018,26.396h34.02
			c0.007,0.001,0.015,0,0.02,0c0.561,0,1.015-0.456,1.015-1.017c0-0.236-0.08-0.453-0.215-0.627l-6.222-12.131
			c-0.175-0.339-0.523-0.552-0.903-0.552H7.323c-0.381,0-0.729,0.213-0.903,0.552L0.115,24.914
			c-0.161,0.315-0.148,0.692,0.037,0.994C0.336,26.21,0.664,26.396,1.018,26.396z M7.942,14.103h20.172l5.262,10.259H2.681
			L7.942,14.103z M1.018,36.983h34.02c0.561,0,1.015-0.456,1.015-1.017c0-0.562-0.454-1.017-1.015-1.017H1.018
			c-0.561,0-1.015,0.455-1.015,1.017C0.003,36.528,0.457,36.983,1.018,36.983z M1.018,39.629h34.02c0.561,0,1.015-0.455,1.015-1.017
			c0-0.561-0.454-1.017-1.015-1.017H1.018c-0.561,0-1.015,0.455-1.015,1.017C0.003,39.175,0.457,39.629,1.018,39.629z"/>
	</g>
</g>
</svg>
