<?xml version="1.0" encoding="utf-8"?>
<!-- Generator: Adobe Illustrator 19.2.1, SVG Export Plug-In . SVG Version: 6.00 Build 0)  -->
<svg version="1.1" id="yell_x5F_hover_1_" xmlns="http://www.w3.org/2000/svg" xmlns:xlink="http://www.w3.org/1999/xlink" x="0px"
	 y="0px" viewBox="0 0 9.3 9" style="enable-background:new 0 0 9.3 9;" xml:space="preserve">
<style type="text/css">
	.st0{fill:#0D47A1;}
</style>
<g id="yell_x5F_hover">
	<g>
		<path class="st0" d="M4.646,0.001c-2.565,0-4.648,2.016-4.648,4.498c0,2.486,2.083,4.502,4.648,4.502
			c2.569,0,4.652-2.016,4.652-4.502C9.298,2.014,7.215,0.001,4.646,0.001z M7.079,6.875L7.079,6.875
			c-0.316-0.088-1.026-0.851-0.888-0.68c0,0-1.543,0.348-1.953,0.397C3.94,6.628,3.439,6.719,3.1,6.196
			C2.76,5.672,2.074,3.563,2.029,2.997c-0.044-0.568,0.27-0.85,0.698-0.872c0.43-0.022,2.413,0.065,3.201,0.218
			c0.774,0.149,1.196,0.13,1.308,0.675C7.349,3.563,7.17,5.35,6.989,5.874C6.989,5.874,7.395,6.963,7.079,6.875z M5.01,3.582
			L4.736,4.143L4.187,3.017H3.365l0.397,0.73l0.502,0.926v0.975h0.943V4.673l0.898-1.656H5.285L5.01,3.582z"/>
	</g>
</g>
</svg>
