<?xml version="1.0" encoding="utf-8"?>
<!-- Generator: Adobe Illustrator 19.2.1, SVG Export Plug-In . SVG Version: 6.00 Build 0)  -->
<svg version="1.1" id="youtube_1_" xmlns="http://www.w3.org/2000/svg" xmlns:xlink="http://www.w3.org/1999/xlink" x="0px" y="0px"
	 viewBox="0 0 9.3 9" style="enable-background:new 0 0 9.3 9;" xml:space="preserve">
<style type="text/css">
	.st0{fill:#0D47A1;}
</style>
<g id="youtube">
	<g>
		<path class="st0" d="M4.65-0.001c-2.565,0-4.648,2.016-4.648,4.498c0,2.486,2.083,4.502,4.648,4.502
			c2.569,0,4.652-2.015,4.652-4.502C9.302,2.011,7.219-0.001,4.65-0.001z M7.508,5.505C7.477,5.881,7.182,6.359,6.773,6.428
			c-1.316,0.098-2.878,0.085-4.243,0c-0.423-0.053-0.703-0.55-0.734-0.923c-0.065-0.785-0.065-1.233,0-2.019
			C1.827,3.11,2.113,2.619,2.53,2.572c1.348-0.11,2.918-0.085,4.243,0C7.244,2.591,7.477,3.06,7.508,3.437
			C7.574,4.223,7.574,4.72,7.508,5.505z M4.072,5.623l1.742-1.126L4.072,3.374V5.623z"/>
	</g>
</g>
</svg>
